<?xml version="1.0" encoding="UTF-8" standalone="no"?>
<!-- Created with Inkscape (http://www.inkscape.org/) -->

<svg
   version="1.1"
   id="svg1"
   width="225"
   height="225"
   viewBox="0 0 225 225"
   xml:space="preserve"
   sodipodi:docname="Degreez.svg"
   inkscape:version="1.4.2 (f4327f4, 2025-05-13)"
   xmlns:inkscape="http://www.inkscape.org/namespaces/inkscape"
   xmlns:sodipodi="http://sodipodi.sourceforge.net/DTD/sodipodi-0.dtd"
   xmlns="http://www.w3.org/2000/svg"
   xmlns:svg="http://www.w3.org/2000/svg"><sodipodi:namedview
     id="namedview1"
     pagecolor="#ffffff"
     bordercolor="#000000"
     borderopacity="0.25"
     inkscape:showpageshadow="2"
     inkscape:pageopacity="0.0"
     inkscape:pagecheckerboard="0"
     inkscape:deskcolor="#d1d1d1"
     inkscape:zoom="3.5911111"
     inkscape:cx="112.36077"
     inkscape:cy="112.5"
     inkscape:window-width="1920"
     inkscape:window-height="1010"
     inkscape:window-x="-6"
     inkscape:window-y="-6"
     inkscape:window-maximized="1"
     inkscape:current-layer="svg1" /><defs
     id="defs1"><clipPath
       clipPathUnits="userSpaceOnUse"
       id="clipPath2"><rect
         style="fill:#000000"
         id="rect3"
         width="143.78003"
         height="50.345699"
         x="183.2402"
         y="-68.941856" /></clipPath></defs><g
     id="g1"
     style="fill:#3c4713;fill-opacity:1"><path
       style="fill:#3c4713;fill-opacity:1"
       d="m 138.17444,190.93646 c -4.96466,-1.93897 -6.84507,-3.48909 -9.77074,-8.05454 -1.45742,-2.27428 -2.66498,-2.67816 -10.99203,-3.67641 -5.14511,-0.6168 -12.46056,-2.09375 -16.25656,-3.28211 -5.903566,-1.84815 -7.800886,-3.0731 -13.117736,-8.46906 l -6.21591,-6.30839 -6.60249,0.52999 c -7.48389,0.60073 -10.56911,-0.72487 -13.10632,-5.63131 -0.85556,-1.65447 -2.6673,-3.18092 -4.27081,-3.5983 -2.73284,-0.71134 -2.74291,-0.74095 -0.53887,-1.58348 1.97061,-0.7533 2.23071,-1.5233 2.12107,-6.27917 -0.0687,-2.98131 0.22653,-5.98929 0.65612,-6.6844 0.50798,-0.82192 -0.76304,-2.69716 -3.63508,-5.36311 -9.2134,-8.5523 -14.88815,-15.64981 -14.88815,-18.62086 0,-1.57322 0.45734,-3.14305 1.01631,-3.48851 0.55897,-0.34546 0.68449,-1.15952 0.27893,-1.80902 -1.36142,-2.18029 -1.39333,-4.85797 -0.0483,-4.04982 0.92026,0.55291 0.90286,0.32077 -0.0655,-0.87416 -0.93572,-1.15463 -1.2471,-4.518039 -1.07248,-11.584749 l 0.24606,-9.957749 -14.99724,-19.85721 c -8.24848,-10.921466 -15.34573,-20.445287 -15.77166,-21.164046 -1.8993399,-3.205101 0.45631,-6.140863 8.9555,-11.160955 4.68584,-2.767715 8.69791,-5.03221 8.91571,-5.03221 0.2178,0 0.54149,0.702377 0.71932,1.560838 0.25317,1.222149 1.98279,1.615958 7.97089,1.814852 5.98348,0.19874 7.53778,-0.0321 7.14301,-1.060838 -0.66837,-1.741745 2.15111,-1.69251 3.60806,0.06301 1.6532,1.991989 -1.43594,2.592161 -13.42613,2.608488 -13.13053,0.01788 -14.40226,0.826318 -14.66159,9.320359 l -0.18908,6.193291 -0.36082,-5.749876 -0.36081,-5.749876 -2.82892,1.462891 c -5.01348,2.592569 -4.80201,3.660263 2.42238,12.230696 0.55349,0.656609 4.5915,5.918159 8.97336,11.692333 4.87265,6.420916 8.36822,10.185441 9,9.692473 0.56814,-0.443315 3.26059,-0.792365 5.98324,-0.775667 2.87473,0.01763 4.16039,0.30743 3.06637,0.69119 -1.31537,0.461407 -1.52177,0.884629 -0.68395,1.402432 0.65997,0.40788 0.95834,1.132515 0.66306,1.610299 -0.29529,0.477784 0.62547,1.68419 2.04613,2.680902 1.42067,0.996711 3.97655,2.924976 5.67975,4.285032 l 3.09672,2.47283 -0.5205,-2.72283 c -0.28627,-1.497556 -0.1329,-2.722829 0.34083,-2.722829 0.47373,0 0.86133,-0.6375 0.86133,-1.416667 0,-2.328555 2.36218,-2.423689 4.5,-0.181231 2.23694,2.346437 7.25474,2.802868 9.32143,0.847898 0.72678,-0.6875 2.30178,-1.264312 3.5,-1.281803 2.10521,-0.03073 2.11487,-0.08002 0.28676,-1.463937 -1.0405,-0.787673 -2.35767,-1.58742 -2.92705,-1.777214 -0.56939,-0.189794 -0.70711,-0.87602 -0.30605,-1.524948 0.54044,-0.874441 1.36763,-0.76155 3.19548,0.436099 1.92674,1.262451 3.77483,1.467921 8.44785,0.939228 3.85755,-0.436431 5.98158,-0.312862 5.98158,0.347988 0,0.627358 2.33125,0.880102 6.01178,0.651773 l 6.011776,-0.372954 4.30219,4.918043 c 2.3662,2.704924 6.2984,8.262473 8.73822,12.350109 4.73293,7.929493 4.02653,7.492416 14.43603,8.932046 1.16785,0.16152 2.13296,1.17511 2.31955,2.43609 0.24992,1.688939 1.01255,2.162819 3.5,2.174789 6.61058,0.0318 5.76909,1.68925 -1.18584,2.33565 -9.28092,0.86257 -12.51178,-0.32168 -11.91784,-4.368389 0.29815,-2.03142 0.0146,-2.98257 -0.88906,-2.98257 -0.73308,0 -1.32681,1.07172 -1.32681,2.39496 0,2.011709 -0.6001,2.475209 -3.75,2.896389 -6.40883,0.85695 -10.50542,1.63074 -10.94136,2.06667 -0.23018,0.23018 -0.45693,3.1282 -0.50389,6.44004 -0.0722,5.09365 -0.40671,6.16491 -2.17069,6.95203 -1.98267,0.88468 -1.95263,0.95586 0.61005,1.44574 1.48245,0.28339 2.45743,0.13026 2.16661,-0.34029 -0.29081,-0.47055 2.9e-4,-0.85554 0.64689,-0.85554 0.68332,0 0.95663,-0.83755 0.65264,-2 -0.41332,-1.58053 -0.0307,-2 1.82435,-2 1.29105,0 2.63052,-0.45815 2.97659,-1.0181 0.95837,-1.55069 6.02332,2.4886 6.20884,4.95155 0.0979,1.29908 -0.26145,1.84997 -0.93506,1.43365 -0.6562,-0.40555 -0.80845,-0.21411 -0.38046,0.47839 0.4228,0.68411 0.0783,1.15451 -0.84549,1.15451 -2.0277,0 -2.01236,1.61206 0.0228,2.39301 2.65737,1.01973 3.66209,0.68492 3.01386,-1.00435 -0.44245,-1.153 -0.18844,-1.44638 0.89301,-1.03139 0.83124,0.31898 1.51134,0.18158 1.51134,-0.30532 0,-0.48691 -0.5625,-1.11226 -1.25,-1.38967 -0.6875,-0.27741 -0.21094,-0.53991 1.05902,-0.58333 1.26996,-0.0434 2.06252,0.31989 1.76124,0.80736 -0.30127,0.48747 0.45967,1.15633 1.69099,1.48635 3.77287,1.01121 4.20476,0.71015 1.96912,-1.37266 -1.18071,-1.1 -2.73231,-2 -3.44801,-2 -1.40124,0 -4.35942,-3.96769 -3.96965,-5.32433 0.13027,-0.45338 -0.19352,-0.55835 -0.71951,-0.23327 -0.93658,0.57884 -4.42622,-3.44271 -3.65585,-4.21309 0.21525,-0.21524 1.3299,0.11094 2.477,0.72485 1.38551,0.74151 2.08565,0.7687 2.08565,0.081 0,-0.56935 1.035,-1.03518 2.3,-1.03518 1.265,0 2.82856,-0.52856 3.47459,-1.17459 0.89945,-0.89945 1.07899,-0.41924 0.76649,2.05003 -0.33913,2.67961 -3e-5,3.37977 2.00631,4.14258 1.5952,0.60649 2.21494,1.43776 1.82652,2.44997 -0.41339,1.07729 0.0375,1.53201 1.5191,1.53201 2.46757,0 2.80585,1.51784 0.53269,2.39014 -0.86587,0.33226 -2.26944,-0.091 -3.11905,-0.94063 -0.84961,-0.84961 -1.82493,-1.26457 -2.16737,-0.92213 -0.34244,0.34245 0.16113,1.06123 1.11905,1.59731 0.95792,0.53608 1.74167,1.5781 1.74167,2.31559 0,1.63031 4.9271,2.31833 14.5,2.02479 7.99041,-0.24501 12.73956,-1.26844 11.93407,-2.57174 -0.30369,-0.49131 -0.0756,-0.89331 0.50688,-0.89331 0.58246,0 1.05902,0.47656 1.05902,1.05902 0,0.58246 0.45734,0.77636 1.01631,0.4309 0.55897,-0.34546 0.70662,-1.15952 0.32811,-1.80902 -0.37852,-0.64949 0.35462,-0.2809 1.62919,0.8191 l 2.31741,2 -1.14551,-2.18426 c -1.64835,-3.14308 -1.50026,-3.33089 2.10449,-2.66889 6.74728,1.2391 7.75165,2.61895 7.73469,10.6262 -0.0179,8.46498 -0.60243,9.69685 -5.03066,10.60252 -4.19656,0.85829 -4.86321,2.75306 -1.50668,4.28239 3.20827,1.46179 2.79934,3.32609 -0.74315,3.38798 -3.46928,0.0606 -4.10159,0.84301 -2.73898,3.38908 0.62,1.15847 0.8549,2.54701 0.52201,3.08565 -0.97723,1.58118 2.86302,1.12273 5.38352,-0.64269 1.59965,-1.12044 2.18058,-2.32913 1.87863,-3.9087 -0.27975,-1.46341 -0.0177,-2.12573 0.72792,-1.83962 0.69778,0.26777 0.97619,1.73384 0.69417,3.6554 -0.42401,2.88898 -0.30668,3.07204 1.17882,1.83918 0.90734,-0.75302 1.64971,-1.97866 1.64971,-2.72363 0,-0.74498 1.14811,-2.10677 2.55135,-3.02621 1.78396,-1.1689 2.23513,-1.98792 1.5,-2.72305 -0.57824,-0.57824 -0.99915,-1.97385 -0.93535,-3.10135 0.0954,-1.68684 0.19702,-1.73998 0.57333,-0.3 0.25152,0.9625 0.87432,1.75 1.38399,1.75 0.50968,0 0.92668,0.675 0.92668,1.5 0,0.85714 0.9,1.5 2.1,1.5 1.155,0 3.63,1.53 5.5,3.4 1.87,1.87 3.4,3.28914 3.4,3.15364 0,-1.34505 -3.41387,-6.55364 -4.29546,-6.55364 -1.65115,0 2.4037,-3.67466 4.85947,-4.40385 1.23631,-0.3671 3.88346,0.30825 6.6011,1.6841 4.45058,2.25317 4.52874,2.25809 4.09924,0.25836 -0.31305,-1.45758 -0.17324,-1.6673 0.49054,-0.73582 0.51062,0.71653 1.40067,1.16653 1.9779,1 3.44998,-0.99533 8.70237,11.48838 7.29934,17.34882 -1.32189,5.52152 -2.07448,6.71145 -5.63758,8.91356 -1.8746,1.15857 -3.10939,2.58721 -2.74531,3.17631 0.45018,0.7284 -0.50685,0.86094 -2.99376,0.41459 -2.01052,-0.36084 -5.34298,-0.9078 -7.40548,-1.21546 -3.58941,-0.53543 -3.64862,-0.49912 -1.38266,0.84798 2.06245,1.22612 2.14851,1.49135 0.66821,2.05939 -0.93452,0.35861 -3.2306,0.65202 -5.10239,0.65202 -1.8718,0 -8.11077,1.575 -13.86439,3.5 -5.75361,1.925 -11.12581,3.5 -11.93822,3.5 -0.8124,0 -2.85503,1.15945 -4.53917,2.57656 -1.68413,1.41711 -4.67985,3.02325 -6.65715,3.56921 -2.37047,0.65452 -3.41888,1.45184 -3.0778,2.34068 0.39343,1.02528 -1.5288,2.78917 -2.68822,2.46678 -0.0925,-0.0257 -2.36533,-0.90487 -5.0507,-1.95365 z m 17.05845,-20.7522 c -1.65111,-1.6511 -1.71541,-1.61311 -1.28146,0.75715 0.25129,1.37251 0.49032,2.69797 0.53119,2.94547 0.0409,0.2475 0.61752,-0.0932 1.28145,-0.75714 0.94286,-0.94286 0.82656,-1.58773 -0.53118,-2.94548 z m -9.61914,-6.14121 c -0.60787,-1.13582 -0.83287,-3.15027 -0.5,-4.47656 0.3524,-1.40404 0.10888,-2.71819 -0.58293,-3.14574 -0.84098,-0.51976 -0.99107,-0.11335 -0.51364,1.3909 0.6828,2.15131 -0.80004,3.00249 -1.96025,1.12523 -0.33992,-0.55 -1.03516,-1 -1.54499,-1 -0.50982,0 0.52923,1.95937 2.30902,4.35415 3.34418,4.49976 4.7279,5.36781 2.79279,1.75202 z m 25.48054,-0.13717 c 0.80445,-0.66764 1.46264,-1.90353 1.46264,-2.74643 0,-1.26912 -0.35427,-1.21193 -2.06105,0.33268 -1.66386,1.50577 -2.22131,1.60591 -2.89267,0.51964 -0.5438,-0.87989 -1.73398,-1.1191 -3.43895,-0.69119 -3.4677,0.87034 -3.35302,2.44273 0.14267,1.95625 l 2.75,-0.38271 -2.5,1.09741 c -1.375,0.60358 -4.075,0.85095 -6,0.54972 -2.57408,-0.4028 -3.10318,-0.27693 -2,0.47578 1.9143,1.30615 12.6097,0.48866 14.53736,-1.11115 z m 16.69278,1.39237 c 2.41857,-0.3998 3.4788,-1.01126 3.01532,-1.73899 -0.39316,-0.61731 -0.72173,-1.57238 -0.73015,-2.12238 -0.008,-0.55 -0.57781,-1.05625 -1.26531,-1.125 -0.6875,-0.0687 -1.72656,-0.18125 -2.30902,-0.25 -0.58246,-0.0687 -0.82725,-0.5 -0.54399,-0.95833 0.28327,-0.45834 -0.0277,-0.88417 -0.69098,-0.9463 -0.6633,-0.0621 -2.46898,-0.30304 -4.01261,-0.53536 -2.26559,-0.34098 -2.68581,-0.11038 -2.17997,1.19629 0.34465,0.89028 0.87637,2.8562 1.1816,4.3687 0.58975,2.92234 1.3465,3.13439 7.53511,2.11137 z m -19.45546,-7.18541 c 0.66014,-1.98043 -2.73445,-2.52234 -4.69365,-0.74929 -1.01446,0.91808 -3.48422,2.12198 -5.48835,2.67535 -2.00413,0.55337 -3.40336,1.39529 -3.1094,1.87093 0.71272,1.1532 12.79153,-2.29739 13.2914,-3.79699 z m -42.77468,1.49071 c 0,-1.28334 -0.5625,-2.37295 -1.25,-2.42137 -5.6271,-0.39631 -14.16623,-2.67705 -18.62712,-4.97517 -4.74082,-2.44232 -5.812326,-3.6086 -9.054826,-9.85565 -2.02274,-3.89704 -3.52555,-7.542 -3.33957,-8.09992 0.18597,-0.55791 -0.35186,-1.58703 -1.19518,-2.28692 -0.84332,-0.69989 -1.5333,-1.89243 -1.5333,-2.65008 0,-0.75766 -0.36714,-1.37756 -0.81586,-1.37756 -1.15474,0 -5.69162,-8.24303 -5.36631,-9.75 0.14841,-0.6875 -0.61308,-1.25 -1.69221,-1.25 -1.07913,0 -2.64102,-0.26055 -3.47087,-0.57899 -1.13483,-0.43547 -1.37336,-0.0609 -0.9623,1.51094 0.30059,1.14946 1.57916,2.3491 2.84127,2.66587 1.57604,0.39556 2.98929,2.193 4.51238,5.73906 6.45004,15.01697 11.2688,23.79666 14.27307,26.00525 3.552126,2.61134 19.866446,8.86431 24.930826,9.55551 0.4125,0.0563 0.75,-0.94764 0.75,-2.23097 z m 29.25,-1.34328 c 1.12407,-0.66158 0.90304,-2.32339 -0.30902,-2.32339 -0.58246,0 -0.74144,0.5625 -0.35329,1.25 0.51326,0.90911 0.38662,0.95727 -0.46436,0.17662 -1.74483,-1.60062 -7.11707,-0.57387 -6.42559,1.22807 0.40368,1.052 1.4108,1.26533 3.67905,0.77932 1.71777,-0.36806 3.46071,-0.86784 3.87321,-1.11062 z m -89.249996,-4.7164 c 0,-0.21616 -0.675,-0.65203 -1.5,-0.96862 -0.825,-0.31658 -1.5,-0.13972 -1.5,0.39301 0,0.53274 0.675,0.96862 1.5,0.96862 0.825,0 1.5,-0.17686 1.5,-0.39301 z m 5.12408,-1.87366 c -0.98761,-0.98026 -1.10248,-0.8654 -0.55979,0.5598 0.37553,0.98622 0.93469,1.54122 1.24258,1.23333 0.30789,-0.30789 6.3e-4,-1.11479 -0.68279,-1.79313 z m 22.87592,0.71181 c 0,-0.30518 -0.8554,-2.44268 -1.90088,-4.75 -1.04548,-2.30733 -3.38747,-8.02014 -5.20442,-12.69514 -1.81694,-4.675 -3.46301,-7.74644 -3.65792,-6.82542 -0.19491,0.92102 0.51022,3.39602 1.56696,5.5 1.05674,2.10398 2.90013,6.75042 4.09643,10.32542 1.19629,3.575 2.36902,7.0625 2.60607,7.75 0.42057,1.2198 2.49376,1.7977 2.49376,0.69514 z m 61.534696,-6.12337 c 3.55827,-1.18609 3.06413,-2.88058 -0.78002,-2.67483 -1.50993,0.0808 -2.49587,-0.25668 -2.19099,-0.75 0.30489,-0.49332 1.31529,-0.90357 2.24533,-0.91168 3.08057,-0.0269 6.50015,-2.45043 6.86137,-4.8629 0.32423,-2.16533 0.0834,-2.32312 -2.69711,-1.76702 -2.52436,0.50488 -3.00293,0.31049 -2.76321,-1.12235 0.15946,-0.95315 0.73993,-2.0636 1.28993,-2.46768 0.56949,-0.41839 0.27201,-0.74128 -0.69098,-0.75 -2.11074,-0.0191 -3.26031,1.65244 -1.56525,2.27599 0.69093,0.25416 0.0218,0.7906 -1.48686,1.19208 -1.54119,0.41013 -2.45934,1.18908 -2.09549,1.7778 0.40362,0.65308 0.15771,0.74507 -0.65275,0.24418 -1.00053,-0.61836 -1.14092,-0.16843 -0.60888,1.95138 0.44052,1.75519 0.17614,3.54153 -0.72851,4.9222 -1.17309,1.79035 -1.52254,5.26884 -0.76563,7.62106 0.0885,0.275 0.94903,-0.44271 1.91232,-1.5949 0.96329,-1.1522 3.08582,-2.5397 4.71673,-3.08333 z m -28.96464,-0.20841 c -0.30138,-0.48765 -2.1599,-1.18903 -4.13003,-1.55863 -1.97013,-0.3696 -4.2251,-0.91876 -5.01104,-1.22035 -0.78595,-0.3016 -1.42899,-0.0631 -1.42899,0.53004 0,1.15813 5.03236,2.89788 8.80902,3.04539 1.26996,0.0496 2.06243,-0.3088 1.76104,-0.79645 z m -15.27995,-2.11474 c 0.28785,-1.10076 0.11534,-1.7492 -0.38337,-1.44098 -0.49871,0.30822 -0.90674,1.20884 -0.90674,2.00138 0,2.06975 0.6795,1.77459 1.29011,-0.5604 z m -4.56352,-5.04079 c 0.13452,-3.71335 -0.15604,-5.81045 -0.75385,-5.44098 -1.42378,0.87994 -1.06541,11.48315 0.3881,11.48315 0.0808,0 0.24536,-2.71898 0.36575,-6.04217 z m 45.27341,-4.95783 c 1.21296,-0.78387 1.06944,-0.9723 -0.75,-0.98469 -1.2375,-0.008 -2.25,0.43469 -2.25,0.98469 0,1.25292 1.06124,1.25292 3,0 z M 63.492244,116.71133 c -0.50879,-1.77405 -2.83988,-4.95816 -5.18019,-7.0758 -9.61964,-8.70434 -12.71027,-11.962209 -12.17293,-12.831644 0.31156,-0.504107 -0.0295,-0.792909 -0.75786,-0.641782 -0.72839,0.151128 -1.658,1.091117 -2.06582,2.088877 -0.96181,2.353119 4.07532,8.955189 6.21101,8.140659 0.80823,-0.30826 1.14475,-0.2357 0.74781,0.16124 -0.75585,0.75585 2.02842,4.384 3.36433,4.384 0.42443,0 0.9651,-0.5625 1.20149,-1.25 0.23639,-0.6875 0.27638,-0.35 0.0889,0.75 -0.22996,1.34896 1.03746,3.21561 3.89352,5.73438 2.32895,2.05391 4.54055,3.74141 4.91466,3.75 0.3741,0.009 0.26391,-1.43588 -0.24488,-3.20993 z m -6.85637,-5.35778 c 0.048,-1.16495 0.28494,-1.4019 0.60417,-0.60417 0.28887,0.72187 0.25334,1.58437 -0.079,1.91667 -0.33229,0.33229 -0.56864,-0.25834 -0.52522,-1.3125 z m -9,-8 c 0.048,-1.16495 0.28494,-1.4019 0.60417,-0.60417 0.28887,0.72187 0.25334,1.58437 -0.079,1.91667 -0.33229,0.33229 -0.56864,-0.25834 -0.52522,-1.3125 z m 21.92106,14.66512 c 0,-0.50502 0.2511,-1.57257 0.558,-2.37234 0.3766,-0.98141 -0.27358,-1.61309 -2,-1.94311 -1.91374,-0.36584 -2.558,-0.0706 -2.558,1.17233 0,1.73935 1.82953,4.06133 3.2,4.06133 0.44,0 0.8,-0.4132 0.8,-0.91821 z m 23.36162,-6.58179 c -0.31658,-0.825 -0.75246,-1.5 -0.96861,-1.5 -0.21616,0 -0.39301,0.675 -0.39301,1.5 0,0.825 0.43587,1.5 0.96861,1.5 0.53274,0 0.7096,-0.675 0.39301,-1.5 z m 5.56266,-15.14757 c 3.066646,-0.317119 5.938706,-0.911638 6.382366,-1.321153 0.44366,-0.409515 -0.21821,-2.854046 -1.47082,-5.432291 l -2.27747,-4.687718 -5.529176,0.606675 c -7.11739,0.780936 -11.02918,1.523898 -11.02918,2.094757 0,0.249584 1.15177,2.7267 2.55949,5.504704 1.90541,3.760144 2.97216,4.892557 4.17429,4.431257 0.88813,-0.34081 4.12386,-0.879111 7.1905,-1.196231 z M 40.118474,71.236674 c -0.46447,-1.210398 -0.91883,-1.342506 -1.75194,-0.509392 -0.83312,0.833114 -0.76926,1.553284 0.24623,2.776871 1.55102,1.868868 2.52826,0.397232 1.50571,-2.267479 z m 94.250956,49.017096 c 0.72187,-0.28887 1.58437,-0.25335 1.91667,0.0789 0.33229,0.3323 -0.25834,0.56864 -1.3125,0.52522 -1.16495,-0.048 -1.4019,-0.28494 -0.60417,-0.60416 z m 4.1875,-11.41934 c -3.025,-1.65446 -4.6,-2.72671 -3.5,-2.38279 1.1,0.34391 3.24558,0.87665 4.76796,1.18386 2.35466,0.47516 2.66525,0.2909 2.08006,-1.23407 -0.8004,-2.08581 0.74563,-1.43307 4.40198,1.85853 5.13107,4.61921 0.30014,4.9773 -7.75,0.57447 z m -24.80763,-1.61807 c -3.23114,-0.60725 -2.14407,-2.77948 1.39096,-2.77948 1.84968,0 2.91667,0.51825 2.91667,1.41667 0,1.63475 -1.06606,1.97203 -4.30763,1.36281 z m 6.80763,-0.67249 c 0,-0.21616 0.675,-0.65203 1.5,-0.96862 0.825,-0.31658 1.5,-0.13972 1.5,0.39301 0,0.53274 -0.675,0.96862 -1.5,0.96862 -0.825,0 -1.5,-0.17686 -1.5,-0.39301 z M 47.556934,72.936881 c -1.29269,-0.835399 -1.2663,-0.971491 0.19098,-0.984687 0.93004,-0.0084 1.9691,0.434687 2.30902,0.984687 0.78218,1.265597 -0.54163,1.265597 -2.5,0 z m 45.76166,-3.707261 c 1.24391,-0.239193 3.04391,-0.230112 4,0.02018 0.95608,0.250293 -0.0617,0.445997 -2.26166,0.434898 -2.2,-0.0111 -2.98226,-0.215885 -1.73834,-0.455078 z m -7.76166,-1.413467 c -3.22952,-1.283997 -7.45154,-5.300878 -11.102,-10.562565 -1.59626,-2.300811 -3.77837,-4.461348 -4.84912,-4.801192 -1.07075,-0.339844 -1.74203,-1.157362 -1.49172,-1.816707 0.2503,-0.659344 -1.34766,-2.944574 -3.55103,-5.078288 -2.20337,-2.133715 -4.00936,-4.158715 -4.0133,-4.5 -0.004,-0.341286 -2.70314,-2.841735 -5.99823,-5.556554 l -5.99106,-4.936035 4.05555,-1.370913 c 2.23056,-0.754002 5.71726,-1.232787 7.74823,-1.063966 3.47496,0.288851 3.69795,0.513306 3.7821,3.806948 0.0891,3.487271 0.088,3.48818 -0.31036,0.25 -0.37998,-3.088898 -0.60747,-3.249241 -4.58943,-3.234687 -5.95947,0.02178 -7.64578,1.312089 -4.45074,3.405559 2.40879,1.578301 34.76386,36.712355 33.62747,36.515742 -0.2015,-0.03486 -1.49136,-0.510667 -2.86636,-1.057342 z M 53.825964,67.24389 c 0.97297,-0.253543 2.32297,-0.236869 3,0.03705 0.67703,0.273927 -0.11903,0.481372 -1.76903,0.460992 -1.65,-0.02038 -2.20394,-0.244498 -1.23097,-0.498042 z M 36.318594,25.22962 c 1.24391,-0.239193 3.04391,-0.230112 4,0.02018 0.95608,0.250293 -0.0617,0.445997 -2.26166,0.434898 -2.2,-0.0111 -2.98226,-0.215885 -1.73834,-0.455078 z"
       id="path1" /><path
       style="fill:#3c4713;stroke-width:0.928202;fill-opacity:1"
       d="m 273.6891,-14.051623 c -0.22852,-0.05524 -0.34475,-0.206511 -0.25828,-0.336155 0.0942,-0.141314 0.0467,-0.172398 -0.11885,-0.07761 -0.36877,0.211205 -0.10584,0.571323 0.39394,0.539552 0.35643,-0.02266 0.35465,-0.03599 -0.0168,-0.125783 z m -0.94549,-0.722848 c 0,-0.540773 -0.046,-0.761999 -0.10217,-0.491612 -0.0562,0.270386 -0.0562,0.712838 0,0.983224 0.0562,0.270386 0.10217,0.04916 0.10217,-0.491612 z m -0.8375,0.365797 c 0.0877,-0.398712 0.0549,-0.542379 -0.0928,-0.405573 -0.12574,0.11652 -0.18686,0.394361 -0.13584,0.617426 0.0687,0.30039 0.128,0.245447 0.22861,-0.211853 z m -0.60118,0.187646 c 0.073,-0.176293 0.078,-0.446679 0.0112,-0.600859 -0.0668,-0.154178 -0.12988,-0.06729 -0.14013,0.193079 -0.0102,0.260372 -0.15123,0.522996 -0.31333,0.583609 -0.23084,0.08632 -0.22924,0.113944 0.007,0.127455 0.16616,0.0095 0.36185,-0.12699 0.43484,-0.303284 z m -0.90082,-0.225702 c -0.004,-0.360516 -0.0576,-0.481547 -0.11743,-0.268959 -0.0598,0.212587 -0.0558,0.507554 0.009,0.655482 0.0646,0.147928 0.1135,-0.02601 0.10869,-0.386523 z m -0.66137,-0.218495 c 0,-0.420601 -0.0414,-0.764729 -0.0921,-0.764729 -0.0507,0 -0.13544,0.344128 -0.18842,0.764729 -0.053,0.420602 -0.0116,0.764731 0.0921,0.764731 0.10364,0 0.18842,-0.344129 0.18842,-0.764731 z m -0.9431,0.436989 c 0,-0.180258 -0.0417,-0.327741 -0.0927,-0.327741 -0.051,0 -0.15373,0.147483 -0.22837,0.327741 -0.0746,0.180257 -0.033,0.327742 0.0927,0.327742 0.12561,0 0.22837,-0.147485 0.22837,-0.327742 z m -0.78868,-0.0094 c 0.0768,-0.18544 0.0735,-0.398472 -0.007,-0.473403 -0.0809,-0.07493 -0.14701,0.02042 -0.14701,0.211896 0,0.191475 -0.18567,0.393102 -0.4126,0.448058 -0.3867,0.09365 -0.38623,0.101514 0.007,0.125268 0.23101,0.01394 0.48284,-0.126378 0.55963,-0.311819 z m -1.33329,-0.209071 c 0,-0.300429 -0.0914,-0.546235 -0.20308,-0.546235 -0.1117,0 -0.15238,0.245806 -0.0904,0.546235 0.062,0.30043 0.15337,0.546236 0.20309,0.546236 0.0497,0 0.0904,-0.245806 0.0904,-0.546236 z m -1.13467,0.396979 c -0.1702,-0.06311 -0.37356,-0.05536 -0.45191,0.01725 -0.0784,0.0726 0.0609,0.124245 0.30946,0.114757 0.27467,-0.01049 0.33053,-0.06225 0.14245,-0.132007 z m -1.07916,-0.162594 c 0.071,-0.171518 0.0896,-0.540227 0.0413,-0.819353 -0.0647,-0.373354 -0.11935,-0.290922 -0.20707,0.311851 -0.12346,0.848292 -0.0582,1.048245 0.16578,0.507502 z m -0.98273,0.113733 c 0.0727,-0.108964 -0.0803,-0.146658 -0.33975,-0.08376 -0.55054,0.133415 -0.62013,0.281881 -0.13213,0.281881 0.18686,0 0.3992,-0.08915 0.47188,-0.198117 z m -1.37143,-0.122416 c 0.073,-0.176292 0.078,-0.446679 0.0112,-0.600858 -0.0668,-0.154179 -0.12988,-0.06631 -0.14012,0.195265 -0.0103,0.261575 -0.20429,0.520557 -0.43122,0.575513 -0.38669,0.09365 -0.38623,0.101514 0.007,0.125268 0.231,0.01394 0.47974,-0.118894 0.55273,-0.295188 z m -1.15484,-0.553443 c 0,-0.540772 -0.046,-0.761998 -0.10218,-0.491612 -0.0562,0.270387 -0.0562,0.712838 0,0.983225 0.0562,0.270386 0.10218,0.04916 0.10218,-0.491613 z m -0.63482,0.536976 c 0.24551,-0.274137 0.24444,-0.386222 -0.005,-0.600859 -0.24203,-0.20766 -0.27073,-0.20365 -0.13475,0.01883 0.095,0.155479 0.0445,0.425866 -0.11217,0.600858 -0.15672,0.174994 -0.23189,0.318171 -0.16705,0.318171 0.0648,0 0.2537,-0.151651 0.41969,-0.337001 z m -1.32489,-0.02165 c 0.1293,-0.312237 0.0944,-0.320237 -0.26949,-0.06183 -0.2299,0.16325 -0.46221,0.324641 -0.51625,0.358645 -0.0541,0.03401 0.0673,0.06183 0.26949,0.06183 0.20226,0 0.43457,-0.161391 0.51625,-0.358645 z m -1.37231,0.106393 c 0.10643,-0.15958 0.0644,-0.192805 -0.1143,-0.09044 -0.15539,0.089 -0.43946,0.04113 -0.63127,-0.106393 -0.2875,-0.221115 -0.32266,-0.205236 -0.20022,0.09044 0.17174,0.414749 0.70048,0.474226 0.94579,0.106393 z m -1.36524,-0.293983 c -0.004,-0.360515 -0.0576,-0.481547 -0.11743,-0.268958 -0.0598,0.212587 -0.0558,0.507554 0.009,0.655482 0.0646,0.147927 0.1135,-0.02601 0.1087,-0.386524 z m -0.66136,0 c 0,-0.300429 -0.0914,-0.546235 -0.20309,-0.546235 -0.11169,0 -0.15237,0.245806 -0.0904,0.546235 0.062,0.30043 0.15336,0.546236 0.20309,0.546236 0.0497,0 0.0904,-0.245806 0.0904,-0.546236 z m -3.53664,0.354495 c 0,-0.105457 -0.15915,-0.314141 -0.35367,-0.463741 -0.50529,-0.388616 -0.46192,-0.958924 0.059,-0.775161 0.3146,0.110992 0.34748,0.08474 0.13843,-0.110532 -0.31527,-0.294489 -0.78682,-0.09936 -0.78682,0.325599 0,0.158451 0.16944,0.418404 0.37652,0.577674 0.3419,0.262944 0.33647,0.304189 -0.059,0.448385 -0.38324,0.139756 -0.37184,0.160645 0.095,0.17416 0.29176,0.0084 0.53049,-0.07093 0.53049,-0.176384 z m -2.12559,0.02787 c 0.002,-0.150216 0.16276,-0.273118 0.35727,-0.273118 0.19452,0 0.35367,-0.09524 0.35367,-0.211637 0,-0.1164 -0.15915,-0.155042 -0.35367,-0.08587 -0.22715,0.08078 -0.35366,-0.0044 -0.35366,-0.238247 0,-0.200207 0.1061,-0.303246 0.23577,-0.228975 0.34974,0.200306 0.28563,-0.0174 -0.0902,-0.30649 -0.26305,-0.202311 -0.3461,-0.124046 -0.42991,0.405152 -0.0571,0.360746 -0.0182,0.781092 0.0867,0.934102 0.14958,0.218422 0.1913,0.219514 0.19414,0.0051 z m -0.84327,-0.02215 c 0.0801,-0.120051 -0.062,-0.161206 -0.3313,-0.09595 -0.39744,0.09632 -0.46388,0.0159 -0.42293,-0.511988 0.0267,-0.344439 0.15917,-0.707478 0.29435,-0.806757 0.15138,-0.111181 0.10994,-0.146204 -0.10789,-0.09119 -0.51213,0.129323 -0.48015,1.5534 0.037,1.64609 0.21485,0.03851 0.45372,-0.02458 0.53082,-0.140198 z m -1.88826,-0.582353 c -0.0338,-1.093728 -0.26119,-1.166376 -0.36909,-0.117897 -0.053,0.515243 0.0101,0.886325 0.1508,0.886401 0.1331,7.2e-5 0.23133,-0.345755 0.21829,-0.768504 z m -1.19445,0.622711 c 0.27012,-0.250324 0.17332,-0.663819 -0.25543,-1.091096 -0.22693,-0.226156 -0.33672,-0.319127 -0.24398,-0.206604 0.0927,0.112524 -0.004,0.321611 -0.21513,0.464639 -0.22575,0.152966 -0.3225,0.408016 -0.23498,0.619386 0.15091,0.364444 0.66257,0.479586 0.94952,0.213675 z m -0.78593,-0.400574 c 0,-0.180257 0.15916,-0.32774 0.35368,-0.32774 0.1945,0 0.35366,0.147483 0.35366,0.32774 0,0.180258 -0.15916,0.327742 -0.35366,0.327742 -0.19452,0 -0.35368,-0.147484 -0.35368,-0.327742 z m -1.00204,0.395639 c -0.50324,-0.12187 -0.55225,-0.723362 -0.059,-0.723362 0.19648,0 0.35366,-0.194217 0.35366,-0.436989 0,-0.31502 -0.14807,-0.429914 -0.53049,-0.411642 -0.39921,0.01907 -0.42839,0.05007 -0.11789,0.125268 0.51547,0.124831 0.5205,0.27434 0.0207,0.613056 -0.48497,0.328625 -0.25895,0.994214 0.32563,0.958937 0.39363,-0.02375 0.39409,-0.03162 0.007,-0.125268 z m -1.25141,-0.0475 c 0.0727,-0.108964 -0.0802,-0.146658 -0.33975,-0.08376 -0.55053,0.133415 -0.62012,0.281881 -0.13213,0.281881 0.18687,0 0.39921,-0.08915 0.47188,-0.198117 z m -1.38171,-0.09758 c 0.26205,-0.632837 0.003,-1.343003 -0.4909,-1.343003 -0.38139,0 -0.47156,0.145663 -0.47156,0.761737 0,0.55225 0.11367,0.782024 0.41333,0.835501 0.22732,0.04057 0.47444,-0.07383 0.54913,-0.254235 z m -0.84457,-0.578273 c 0,-0.436989 0.11789,-0.655483 0.35367,-0.655483 0.23577,0 0.35366,0.218494 0.35366,0.655483 0,0.436988 -0.11789,0.655482 -0.35366,0.655482 -0.23578,0 -0.35367,-0.218494 -0.35367,-0.655482 z m -0.70732,0.682235 c 0,-0.105457 -0.15915,-0.314141 -0.35367,-0.463741 -0.50529,-0.388616 -0.46192,-0.958924 0.059,-0.775161 0.3146,0.110992 0.34749,0.08474 0.13844,-0.110532 -0.31528,-0.294489 -0.78682,-0.09936 -0.78682,0.325599 0,0.158451 0.16944,0.418405 0.37652,0.577674 0.34189,0.262944 0.33646,0.304189 -0.059,0.448385 -0.38323,0.139756 -0.37184,0.160645 0.095,0.17416 0.29177,0.0084 0.5305,-0.07093 0.5305,-0.176384 z m -1.60622,0.04248 c -0.1702,-0.06311 -0.37357,-0.05536 -0.45191,0.01725 -0.0784,0.0726 0.0609,0.124245 0.30945,0.114758 0.27468,-0.01049 0.33054,-0.06225 0.14246,-0.132008 z m 24.3434,-0.660673 c 0.12796,-0.311397 0.10087,-0.336494 -0.13199,-0.122312 -0.16113,0.148213 -0.23357,0.324517 -0.16098,0.391789 0.0726,0.06727 0.20443,-0.05399 0.29297,-0.269477 z m -20.59591,-0.06404 c 0.0671,-0.370925 0.23928,-0.535249 0.53646,-0.512005 0.32157,0.02515 0.368,-0.03031 0.17504,-0.20913 -0.3604,-0.333974 -1.04604,0.312606 -0.91111,0.859179 0.0807,0.326982 0.12045,0.299517 0.19961,-0.138044 z m -4.49903,0.254909 c 0,-0.1402 0.23872,-0.266315 0.53049,-0.280255 0.43665,-0.02086 0.45308,-0.04382 0.0928,-0.129737 -0.4703,-0.112181 -1.05043,0.269119 -0.78445,0.515598 0.0886,0.08212 0.16111,0.0346 0.16111,-0.105606 z m 31.10377,-0.600865 c -0.0113,-0.254533 -0.0672,-0.306306 -0.14246,-0.132006 -0.0681,0.157725 -0.0598,0.346176 0.0186,0.41878 0.0784,0.0726 0.13407,-0.05644 0.12384,-0.286774 z m -30.58801,-0.458789 c -0.1702,-0.06311 -0.37356,-0.05536 -0.4519,0.01725 -0.0784,0.0726 0.0609,0.124245 0.30945,0.114758 0.27467,-0.01049 0.33054,-0.06226 0.14245,-0.132008 z m -41.06916,-8.704846 c 6.15963,-0.51546 13.10912,-1.096933 15.4433,-1.292162 11.2886,-0.944177 33.67485,-2.744929 34.12387,-2.744929 0.53827,0 0.26597,-0.180614 -9.02257,-5.984519 -2.86365,-1.789338 -5.12068,-3.330405 -5.01562,-3.424592 0.26474,-0.237342 4.64314,-1.762689 9.15049,-3.187846 18.92408,-5.983515 36.53503,-7.951015 51.45295,-5.748341 12.58949,1.858873 23.09788,6.377096 30.68349,13.192782 2.15354,1.934959 2.19535,1.959879 1.67981,1.001128 -0.87857,-1.633892 -3.03988,-4.611147 -4.44116,-6.117835 -2.01889,-2.170749 -3.57203,-3.52239 -3.85879,-3.358152 -0.14952,0.08564 -0.1922,0.04831 -0.10104,-0.08838 0.18564,-0.27836 -3.03914,-2.794973 -3.52462,-2.750594 -0.18022,0.01647 -0.26991,-0.05665 -0.19931,-0.162514 0.0706,-0.105858 -0.91197,-0.815883 -2.18347,-1.577834 -18.19765,-10.904997 -45.69738,-13.589775 -81.76818,-7.982969 -3.11225,0.483763 -6.05649,0.933751 -6.54278,0.999975 l -0.88416,0.120407 v -7.050623 -7.050625 l -0.64838,0.771522 c -5.14669,6.124134 -5.28126,6.305098 -4.96602,6.67853 0.27057,0.320523 0.26245,0.332626 -0.0647,0.09633 -0.32159,-0.232323 -0.64511,0.05293 -2.30515,2.032432 -1.06209,1.266476 -1.85876,2.411086 -1.7704,2.543576 0.0926,0.138864 0.0533,0.17939 -0.0929,0.09568 -0.14211,-0.08139 -0.70911,0.407912 -1.29014,1.113334 -0.57014,0.692199 -6.28543,7.551174 -12.70067,15.242167 -14.26021,17.096084 -13.06682,15.627721 -12.67596,15.596789 0.17749,-0.01404 5.36241,-0.447277 11.52205,-0.962737 z"
       id="path2"
       clip-path="url(#clipPath2)"
       transform="matrix(0.60447073,0.53260247,-0.53975807,0.54604937,-14.70956,-57.06271)" /><path
       d="m 20.415657,148.81497 c -1.380636,0.60863 -2.786355,0.82376 -4.224682,0.54784 -1.431706,-0.26697 -2.717498,-0.95087 -3.798008,-2.08146 -0.747508,-0.78354 -1.390447,-1.76026 -1.896246,-2.92247 -0.4979265,-1.1401 -0.9714514,-2.76532 -1.263723,-4.82482 -0.2695024,-1.89906 -0.4248267,-3.83882 -0.4517415,-5.81403 l 16.5539985,0.0991 c -0.0451,1.11649 0.01725,2.24779 0.173272,3.38881 0.186394,1.36311 0.332273,2.4038 0.324935,3.29523 0.0018,0.87049 -0.07411,1.6537 -0.258837,2.36276 -0.321805,1.20909 -0.875448,2.33968 -1.712872,3.37916 -0.834514,1.03586 -1.970783,1.91956 -3.446096,2.56993 z m -0.939318,-2.39073 c 1.213452,-0.45501 2.152276,-1.07437 2.830481,-1.80637 0.680919,-0.73494 1.121272,-1.58954 1.360958,-2.5557 0.173251,-0.70318 0.247883,-1.39152 0.22884,-2.0816 -0.01198,-0.69813 -0.100284,-1.48012 -0.230636,-2.39543 -0.08727,-0.61281 -0.150715,-1.22464 -0.188608,-1.83485 l -12.673688,0.92329 c 0.07306,0.91309 0.175188,1.81825 0.304662,2.71483 0.198705,1.37601 0.513049,2.54964 0.888948,3.50033 0.379405,0.96352 0.899009,1.78823 1.537015,2.46219 0.795735,0.84146 1.697434,1.33379 2.668048,1.50516 0.977747,0.18049 2.064196,0.0218 3.27398,-0.43185 z m 3.094804,21.24388 c -1.560731,-1.91474 -3.042523,-3.9083 -4.433829,-5.98123 -1.1746,-1.70076 -2.27705,-3.48998 -3.284023,-5.35907 l 14.656772,-7.88866 c 0.73713,1.37138 1.543839,2.73322 2.396804,4.07691 1.067984,1.61963 2.227855,3.18858 3.468066,4.70743 l -1.51341,1.23456 c -1.278096,-1.56565 -2.476018,-3.18479 -3.582219,-4.85799 -0.493037,-0.76691 -0.970972,-1.54192 -1.429854,-2.32357 l -3.912782,2.33278 c 0.503305,0.84759 1.027836,1.68263 1.569641,2.50368 1.194794,1.79742 2.480926,3.5329 3.846848,5.20703 l -1.513409,1.23455 c -1.403808,-1.72092 -2.727991,-3.50659 -3.961001,-5.35759 -0.562843,-0.8444 -1.107474,-1.70535 -1.629942,-2.58138 l -5.303336,3.16181 c 0.582678,0.96541 1.190465,1.90774 1.819408,2.82552 1.353089,2.01935 2.79683,3.96272 4.319676,5.83067 z m 15.996017,13.68466 c -1.112797,-0.32621 -2.278414,-0.77932 -3.484634,-1.36803 -1.195253,-0.58906 -2.256202,-1.29922 -3.171676,-2.11605 -1.179988,-1.05283 -2.118133,-2.18265 -2.808139,-3.35865 -0.690257,-1.17643 -1.086142,-2.35265 -1.195202,-3.50376 -0.109949,-1.16402 0.07993,-2.2869 0.554483,-3.3653 0.480817,-1.08506 1.272146,-2.09208 2.355348,-3.04767 1.977278,-1.74435 4.102704,-2.49033 6.280837,-2.39309 2.207616,0.0985 4.217921,1.03739 6.239235,2.83138 0.706665,0.62718 1.3634,1.34135 1.980973,2.15026 0.628446,0.80844 1.230732,1.77895 1.830441,2.9213 l -1.587403,2.07685 c -0.05624,-0.0431 -0.112435,-0.0862 -0.168574,-0.12939 -0.08566,-0.29238 -0.220997,-0.6886 -0.404545,-1.2033 -0.182681,-0.5123 -0.383063,-0.9816 -0.603277,-1.40919 -0.2689,-0.51511 -0.613367,-1.04481 -1.031515,-1.59419 -0.407707,-0.55035 -0.926261,-1.10224 -1.555787,-1.66679 -1.414925,-1.26888 -2.893137,-1.88168 -4.538808,-1.84702 -1.625331,0.0348 -3.202564,0.70882 -4.675997,2.09902 -1.55729,1.46933 -2.336405,3.07373 -2.247959,4.86844 0.09319,1.77914 1.009031,3.51269 2.750913,5.07024 0.637315,0.56987 1.325332,1.07442 2.059487,1.51066 0.740518,0.44173 1.430957,0.77229 2.063485,0.9964 l 2.549002,-3.16167 c -1.309863,-1.05587 -2.592041,-2.14825 -3.841817,-3.27737 l 1.29695,-1.43644 c 1.822901,1.64584 3.718058,3.2141 5.669825,4.70552 z m 17.305705,12.06141 c -1.039297,-0.50067 -2.069802,-1.01877 -3.091032,-1.55388 -0.960575,-2.97914 -1.760071,-5.95645 -2.404612,-8.91767 -1.000529,-0.60979 -1.990035,-1.23749 -2.967899,-1.8826 l -3.622425,5.49184 c -0.740181,-0.48859 -1.473992,-0.98653 -2.201212,-1.49363 l 9.456009,-13.57644 c 1.292149,0.89873 2.607868,1.76341 3.945097,2.59228 0.866946,0.53737 1.560119,1.02517 2.082587,1.48314 0.525036,0.45054 0.945695,0.95144 1.264178,1.5087 0.356918,0.62927 0.555701,1.27832 0.591743,1.95209 0.04629,0.66996 -0.13009,1.39814 -0.539141,2.17858 -0.553888,1.05679 -1.303502,1.79336 -2.271463,2.19124 -0.96257,0.39059 -2.065837,0.47644 -3.296578,0.23859 0.821887,3.25557 1.837334,6.52479 3.054748,9.78776 z m 0.273131,-13.25379 c 0.231296,-0.41384 0.355956,-0.82391 0.377014,-1.22849 0.03153,-0.40744 -0.06629,-0.81994 -0.290041,-1.23932 -0.181822,-0.35261 -0.447589,-0.67858 -0.797601,-0.98093 -0.346492,-0.30895 -0.781742,-0.62259 -1.306604,-0.94665 -0.764007,-0.47171 -1.521118,-0.95487 -2.270974,-1.44914 l -3.438857,5.21353 c 0.687967,0.45378 1.381773,0.89879 2.081188,1.33483 0.657275,0.40977 1.267322,0.70935 1.82258,0.90169 0.559474,0.18608 1.097953,0.23307 1.610979,0.1431 0.473741,-0.087 0.882199,-0.26484 1.226157,-0.53036 0.354952,-0.26826 0.682319,-0.67463 0.986103,-1.21816 z m 14.461178,18.98116 c -4.235133,-1.27116 -8.37423,-2.82369 -12.39047,-4.63457 l 6.805099,-15.07949 c 3.361997,1.51878 6.815506,2.81574 10.333705,3.86788 l -0.561253,1.87302 c -2.875742,-0.86044 -5.707912,-1.87961 -8.482871,-3.0458 l -1.755067,4.17917 c 2.920813,1.22685 5.904308,2.3003 8.936847,3.20864 l -0.561254,1.87302 c -3.100177,-0.92901 -6.148949,-2.02587 -9.132679,-3.27888 l -2.378796,5.6644 c 3.181418,1.33523 6.435295,2.50566 9.747993,3.49959 z m 17.302198,3.42399 c -4.470187,-0.41801 -8.88674,-1.19363 -13.198352,-2.28544 l 4.03541,-16.05767 c 3.545144,0.88262 7.138828,1.51893 10.729746,1.86754 l -0.185197,1.94741 c -2.949098,-0.28479 -5.895711,-0.75814 -8.813751,-1.39898 l -0.976686,4.43233 c 3.09065,0.68042 6.219719,1.18115 9.361118,1.48112 l -0.185197,1.94742 c -3.224352,-0.30652 -6.432126,-0.81906 -9.597235,-1.51656 l -1.323788,6.00752 c 3.399062,0.75115 6.854135,1.3008 10.339129,1.6279 z M 107.254,202.04571 c -5.35242,0.81576 -10.732468,1.04676 -16.054877,0.76182 l 0.112616,-2.04067 c 4.307932,-3.95394 8.005464,-8.24376 10.940111,-12.76512 -3.255383,0.35491 -6.556048,0.43314 -9.865087,0.26446 l 0.09655,-1.95235 c 4.042221,0.20819 8.062706,0.036 11.987936,-0.57593 l 0.29798,1.96594 c -2.76023,4.67602 -6.323619,9.13012 -10.533739,13.25561 4.233017,0.0718 8.487349,-0.19784 12.717259,-0.84572 z"
       id="text4"
       aria-label="DEGREEZ"
       transform="translate(4.5356483,3.1749538)"
       style="stroke-width:5.91496;stroke-dasharray:none;fill:#3c4713;fill-opacity:1" /><text
       xml:space="preserve"
       style="font-size:41.0564px;text-align:start;writing-mode:lr-tb;direction:ltr;text-anchor:start;fill:#3c4713;stroke-width:20.2372;stroke-dasharray:none;fill-opacity:1"
       x="138.6039"
       y="93.667931"
       id="text5"
       transform="scale(0.96510986,1.0361515)"><tspan
         id="tspan4"
         x="138.6039"
         y="93.667931"
         style="stroke-width:20.2372;fill:#3c4713;fill-opacity:1">0°</tspan></text></g></svg>
